<?xml version="1.0" encoding="UTF-8" standalone="no"?>
<svg xmlns="http://www.w3.org/2000/svg" version="1.2" baseProfile="tiny" viewBox="0.00 0.00 500.00 500.00">
<g stroke-width="2.00" fill="none" stroke-linecap="butt">
<path stroke="#fdc60f" vector-effect="non-scaling-stroke" d="
  M 303.28 58.65
  C 307.27 91.96 300.16 124.78 284.89 154.78"
/>
<path stroke="#ab7e18" vector-effect="non-scaling-stroke" d="
  M 284.89 154.78
  C 268.99 148.05 254.54 148.61 237.79 151.50"
/>
<path stroke="#fdc60f" vector-effect="non-scaling-stroke" d="
  M 237.79 151.50
  C 224.82 117.51 223.94 80.05 239.87 47.30"
/>
<path stroke="#ab7109" vector-effect="non-scaling-stroke" d="
  M 237.79 151.50
  L 229.88 153.15"
/>
<path stroke="#fdc60f" vector-effect="non-scaling-stroke" d="
  M 229.88 153.15
  C 227.06 116.21 214.06 78.24 186.06 53.15"
/>
<path stroke="#fdc60f" vector-effect="non-scaling-stroke" d="
  M 362.02 63.65
  C 323.76 78.59 302.15 120.17 293.61 158.40"
/>
<path stroke="#ab7109" vector-effect="non-scaling-stroke" d="
  M 293.61 158.40
  L 284.89 154.78"
/>
<path stroke="#ab7e18" vector-effect="non-scaling-stroke" d="
  M 335.59 193.78
  C 339.48 198.35 341.84 202.28 342.94 208.52
  C 344.12 215.21 345.00 218.24 348.51 223.76
  C 351.14 227.91 350.84 232.82 350.14 237.44"
/>
<path stroke="#ab7109" vector-effect="non-scaling-stroke" d="
  M 350.14 237.44
  L 351.21 246.70"
/>
<path stroke="#ab7e18" vector-effect="non-scaling-stroke" d="
  M 351.21 246.70
  L 351.24 253.42
  A 1.69 1.66 -62.3 0 0 351.52 254.35
  C 354.34 258.60 351.11 264.56 348.97 269.71
  C 347.04 274.33 350.49 278.92 346.94 282.99
  Q 343.53 286.92 340.24 291.33"
/>
<path stroke="#ab7109" vector-effect="non-scaling-stroke" d="
  M 340.24 291.33
  L 336.20 299.29"
/>
<path stroke="#ab7e18" vector-effect="non-scaling-stroke" d="
  M 336.20 299.29
  Q 332.74 308.79 325.04 315.26
  Q 323.12 316.87 321.74 318.95
  Q 315.36 328.58 304.14 333.73"
/>
<path stroke="#ab7109" vector-effect="non-scaling-stroke" d="
  M 304.14 333.73
  L 295.33 338.26"
/>
<path stroke="#ab7e18" vector-effect="non-scaling-stroke" d="
  M 295.33 338.26
  Q 274.65 346.93 250.12 346.52"
/>
<path stroke="#ab7109" vector-effect="non-scaling-stroke" d="
  M 250.12 346.52
  L 237.95 345.83"
/>
<path stroke="#ab7e18" vector-effect="non-scaling-stroke" d="
  M 237.95 345.83
  Q 228.28 343.80 219.04 340.03
  C 213.47 337.76 205.72 338.89 202.18 333.07
  Q 199.65 328.92 197.46 326.78"
/>
<path stroke="#ab7109" vector-effect="non-scaling-stroke" d="
  M 197.46 326.78
  L 187.56 322.14"
/>
<path stroke="#ab7e18" vector-effect="non-scaling-stroke" d="
  M 187.56 322.14
  Q 179.63 316.78 174.78 309.46
  Q 167.70 298.77 160.51 285.23"
/>
<path stroke="#ab7109" vector-effect="non-scaling-stroke" d="
  M 160.51 285.23
  Q 160.10 279.44 158.43 274.61"
/>
<path stroke="#ab7e18" vector-effect="non-scaling-stroke" d="
  M 158.43 274.61
  Q 154.74 265.29 154.24 255.60
  C 154.03 251.44 155.94 247.26 156.40 242.91
  A 1.32 1.31 29.3 0 0 156.14 241.99
  C 153.32 238.33 156.34 232.87 156.60 228.46"
/>
<path stroke="#ab7109" vector-effect="non-scaling-stroke" d="
  M 156.60 228.46
  L 158.95 219.45"
/>
<path stroke="#ab7e18" vector-effect="non-scaling-stroke" d="
  M 229.88 153.15
  C 223.60 154.64 216.81 155.20 211.08 158.32
  Q 201.15 163.72 193.03 172.50
  Q 192.29 173.30 189.02 174.71"
/>
<path stroke="#fdc60f" vector-effect="non-scaling-stroke" d="
  M 189.02 174.71
  C 161.55 151.88 131.39 121.33 129.26 83.15"
/>
<path stroke="#fdc60f" vector-effect="non-scaling-stroke" d="
  M 399.56 114.98
  C 387.21 139.51 367.07 159.62 345.08 175.84
  Q 337.45 181.47 328.98 186.18"
/>
<path stroke="#ab7e18" vector-effect="non-scaling-stroke" d="
  M 328.98 186.18
  C 318.02 174.01 310.01 164.01 293.61 158.40"
/>
<path stroke="#ab7109" vector-effect="non-scaling-stroke" d="
  M 189.02 174.71
  Q 183.44 176.72 180.81 181.28"
/>
<path stroke="#fdc60f" vector-effect="non-scaling-stroke" d="
  M 180.81 181.28
  C 157.95 153.14 123.63 124.78 86.68 119.42
  Q 86.40 119.38 86.23 119.15
  Q 86.12 118.99 85.93 118.93"
/>
<path stroke="#fdc60f" vector-effect="non-scaling-stroke" d="
  M 319.68 454.16
  C 321.13 449.42 322.91 444.37 323.88 439.84
  Q 328.04 420.27 324.03 401.74
  Q 316.70 367.89 295.33 338.26"
/>
<path stroke="#fdc60f" vector-effect="non-scaling-stroke" d="
  M 460.50 268.24
  C 445.31 256.27 427.98 248.03 408.76 245.18
  C 388.11 242.13 372.37 243.37 351.21 246.70"
/>
<path stroke="#fdc60f" vector-effect="non-scaling-stroke" d="
  M 434.55 326.08
  C 401.35 325.24 367.20 310.19 340.24 291.33"
/>
<path stroke="#fdc60f" vector-effect="non-scaling-stroke" d="
  M 447.78 215.66
  Q 437.80 221.66 429.19 224.94
  C 404.50 234.35 377.00 237.93 350.14 237.44"
/>
<path stroke="#fdc60f" vector-effect="non-scaling-stroke" d="
  M 418.84 386.29
  C 417.21 380.49 415.54 374.31 413.42 369.00
  C 399.64 334.61 370.76 311.15 336.20 299.29"
/>
<path stroke="#fdc60f" vector-effect="non-scaling-stroke" d="
  M 158.43 274.61
  Q 127.05 288.58 92.99 291.72
  Q 73.79 293.49 55.18 289.66"
/>
<path stroke="#fdc60f" vector-effect="non-scaling-stroke" d="
  M 440.56 153.39
  C 401.28 148.60 363.31 166.55 335.59 193.78"
/>
<path stroke="#ab7109" vector-effect="non-scaling-stroke" d="
  M 335.59 193.78
  L 328.98 186.18"
/>
<path stroke="#fdc60f" vector-effect="non-scaling-stroke" d="
  M 187.56 322.14
  Q 168.15 351.31 139.81 373.06
  Q 124.19 385.06 107.64 390.79"
/>
<path stroke="#fdc60f" vector-effect="non-scaling-stroke" d="
  M 160.51 285.23
  C 124.71 292.06 80.25 310.48 64.26 346.21"
/>
<path stroke="#fdc60f" vector-effect="non-scaling-stroke" d="
  M 197.46 326.78
  C 168.84 353.11 141.21 393.12 147.56 433.98"
/>
<path stroke="#ab7e18" vector-effect="non-scaling-stroke" d="
  M 180.81 181.28
  C 176.62 189.16 169.73 194.28 165.89 202.21
  Q 161.82 210.60 158.95 219.45"
/>
<path stroke="#fdc60f" vector-effect="non-scaling-stroke" d="
  M 158.95 219.45
  Q 126.18 214.71 95.90 201.25
  C 78.18 193.37 64.17 183.45 53.71 166.95"
/>
<path stroke="#fdc60f" vector-effect="non-scaling-stroke" d="
  M 237.95 345.83
  C 237.07 380.11 228.79 420.40 206.81 447.77"
/>
<path stroke="#fdc60f" vector-effect="non-scaling-stroke" d="
  M 156.60 228.46
  Q 130.09 216.41 101.24 213.07
  C 81.65 210.80 63.35 213.16 46.22 223.45"
/>
<path stroke="#fdc60f" vector-effect="non-scaling-stroke" d="
  M 368.92 415.18
  Q 366.63 413.74 363.69 411.86
  C 337.47 395.14 316.05 361.73 304.14 333.73"
/>
<path stroke="#fdc60f" vector-effect="non-scaling-stroke" d="
  M 264.11 457.14
  C 244.39 426.17 244.24 380.91 250.12 346.52"
/>
<path stroke="#6b2d15" vector-effect="non-scaling-stroke" d="
  M 233.81 168.69
  C 226.25 167.51 213.58 175.28 206.50 179.92
  C 203.69 181.76 202.08 184.33 200.07 186.96
  Q 199.76 187.37 199.26 187.53
  C 197.34 188.15 195.87 188.28 194.37 189.74
  C 188.28 195.64 184.30 203.02 179.58 210.83
  C 177.62 214.07 176.72 217.44 175.54 221.00
  C 174.56 223.99 175.37 226.93 172.35 229.66
  A 1.11 1.09 -22.0 0 0 171.98 230.50
  C 171.99 232.80 173.05 234.68 172.90 236.78
  C 172.62 240.71 171.09 244.29 170.90 247.87
  C 170.57 254.18 170.34 261.13 172.82 267.06
  Q 173.72 269.22 174.37 271.61
  C 179.39 289.91 187.41 305.56 205.12 313.95
  C 207.13 314.90 208.37 317.40 210.31 318.88
  Q 228.69 332.81 251.90 330.45
  Q 253.81 330.26 256.06 330.83
  C 261.42 332.22 268.13 329.27 273.43 328.16
  C 275.38 327.75 276.80 326.42 278.68 325.89
  C 285.01 324.11 294.03 321.93 299.09 317.63
  C 303.48 313.91 308.61 309.94 312.16 306.44
  C 327.87 290.98 335.73 273.27 336.14 250.86
  Q 336.15 250.40 335.88 250.03
  C 334.34 247.84 333.97 246.83 334.77 244.04
  Q 337.23 235.42 334.00 226.87
  A 1.26 1.22 3.5 0 0 333.38 226.19
  Q 330.37 224.75 329.99 222.25
  Q 328.58 212.86 324.72 206.26
  C 322.90 203.13 323.21 200.11 319.03 198.36
  Q 318.57 198.17 318.29 197.77
  C 315.27 193.49 312.47 189.69 308.28 186.35
  C 300.35 180.02 289.19 170.12 280.38 171.12
  A 1.28 1.27 -29.1 0 1 279.45 170.86
  C 273.42 166.13 270.18 169.05 263.69 167.82
  Q 253.53 165.91 243.20 166.70
  C 239.70 166.97 237.87 169.32 233.81 168.69"
/>
<path stroke="#6b2d15" vector-effect="non-scaling-stroke" d="
  M 198.16 277.40
  C 199.63 281.93 204.00 281.33 204.74 287.04
  Q 204.81 287.54 205.20 287.86
  C 210.92 292.42 216.48 298.82 222.83 303.07
  C 224.58 304.25 226.08 304.17 228.01 303.69
  A 1.29 1.26 -37.5 0 1 228.92 303.80
  Q 231.13 304.99 233.20 306.41
  Q 233.70 306.76 234.30 306.82
  Q 241.20 307.50 247.32 310.65
  Q 247.79 310.89 248.27 310.67
  L 250.94 309.44
  A 1.84 1.84 0.0 0 1 251.82 309.28
  C 264.50 310.31 277.60 304.31 288.27 298.49
  C 294.44 295.13 298.75 292.65 301.99 286.62
  Q 304.30 282.31 307.45 278.54
  C 311.33 273.89 307.78 268.58 313.20 265.22
  A 1.25 1.24 -9.1 0 0 313.76 264.45
  Q 314.22 262.51 314.04 261.75
  C 312.61 255.75 313.71 251.51 314.58 246.08
  C 315.09 242.91 315.22 238.12 314.03 235.72
  Q 309.84 227.23 306.71 218.31
  C 306.07 216.50 304.62 215.53 303.27 214.32
  C 300.61 211.93 299.04 208.44 296.62 205.69
  C 293.75 202.42 291.19 196.53 286.74 195.76
  C 278.87 194.41 272.20 190.03 264.72 187.55
  C 258.53 185.49 254.23 187.59 248.44 188.03
  Q 234.73 189.08 224.83 193.59
  C 215.92 197.65 209.99 204.51 203.97 212.47
  C 197.92 220.47 196.06 230.71 193.73 240.22
  C 190.42 253.80 194.13 265.01 198.16 277.40"
/>
</g>
<path fill="#fdd31d" d="
  M 303.28 58.65
  C 307.27 91.96 300.16 124.78 284.89 154.78
  C 268.99 148.05 254.54 148.61 237.79 151.50
  C 224.82 117.51 223.94 80.05 239.87 47.30
  Q 253.12 22.27 275.75 5.99
  Q 276.16 5.70 276.51 6.06
  Q 297.68 28.32 303.28 58.65
  Z"
/>
<path fill="#fdb800" d="
  M 239.87 47.30
  C 223.94 80.05 224.82 117.51 237.79 151.50
  L 229.88 153.15
  C 227.06 116.21 214.06 78.24 186.06 53.15
  Q 180.57 32.33 191.60 15.20
  A 0.46 0.46 0.0 0 1 192.24 15.06
  C 208.73 25.36 225.71 33.38 239.87 47.30
  Z"
/>
<path fill="#fdb800" d="
  M 362.02 63.65
  C 323.76 78.59 302.15 120.17 293.61 158.40
  L 284.89 154.78
  C 300.16 124.78 307.27 91.96 303.28 58.65
  C 317.47 43.54 335.87 35.36 354.73 27.86
  Q 355.19 27.68 355.38 28.13
  Q 362.36 45.15 362.02 63.65
  Z"
/>
<path fill="#fdd31d" d="
  M 186.06 53.15
  C 214.06 78.24 227.06 116.21 229.88 153.15
  C 223.60 154.64 216.81 155.20 211.08 158.32
  Q 201.15 163.72 193.03 172.50
  Q 192.29 173.30 189.02 174.71
  C 161.55 151.88 131.39 121.33 129.26 83.15
  C 128.92 65.86 134.57 48.41 141.30 32.62
  Q 141.64 31.84 142.46 32.06
  C 158.49 36.42 172.76 42.53 186.06 53.15
  Z"
/>
<path fill="#fdd31d" d="
  M 399.56 114.98
  C 387.21 139.51 367.07 159.62 345.08 175.84
  Q 337.45 181.47 328.98 186.18
  C 318.02 174.01 310.01 164.01 293.61 158.40
  C 302.15 120.17 323.76 78.59 362.02 63.65
  Q 382.20 57.09 403.12 56.86
  Q 403.60 56.85 403.68 57.32
  C 407.37 77.11 407.82 96.22 399.56 114.98
  Z"
/>
<path fill="#fdb800" d="
  M 129.26 83.15
  C 131.39 121.33 161.55 151.88 189.02 174.71
  Q 183.44 176.72 180.81 181.28
  C 157.95 153.14 123.63 124.78 86.68 119.42
  Q 86.40 119.38 86.23 119.15
  Q 86.12 118.99 85.93 118.93
  Q 77.48 99.92 77.91 78.76
  Q 77.92 78.26 78.42 78.27
  C 95.56 78.59 112.34 78.55 129.26 83.15
  Z"
/>
<path fill="#fdb800" d="
  M 440.56 153.39
  C 401.28 148.60 363.31 166.55 335.59 193.78
  L 328.98 186.18
  Q 337.45 181.47 345.08 175.84
  C 367.07 159.62 387.21 139.51 399.56 114.98
  C 416.64 110.58 433.36 113.70 451.14 117.30
  Q 451.62 117.40 451.55 117.89
  Q 448.98 136.38 440.56 153.39
  Z"
/>
<path fill="#fdd31d" d="
  M 85.93 118.93
  Q 86.12 118.99 86.23 119.15
  Q 86.40 119.38 86.68 119.42
  C 123.63 124.78 157.95 153.14 180.81 181.28
  C 176.62 189.16 169.73 194.28 165.89 202.21
  Q 161.82 210.60 158.95 219.45
  Q 126.18 214.71 95.90 201.25
  C 78.18 193.37 64.17 183.45 53.71 166.95
  C 47.72 154.28 44.87 140.89 42.53 127.22
  Q 42.41 126.53 43.07 126.30
  C 56.72 121.66 71.07 118.22 85.50 119.23
  Q 85.74 119.24 85.93 118.93
  Z"
/>
<path fill="#592912" d="
  M 284.89 154.78
  L 293.61 158.40
  C 310.01 164.01 318.02 174.01 328.98 186.18
  L 335.59 193.78
  C 339.48 198.35 341.84 202.28 342.94 208.52
  C 344.12 215.21 345.00 218.24 348.51 223.76
  C 351.14 227.91 350.84 232.82 350.14 237.44
  L 351.21 246.70
  L 351.24 253.42
  A 1.69 1.66 -62.3 0 0 351.52 254.35
  C 354.34 258.60 351.11 264.56 348.97 269.71
  C 347.04 274.33 350.49 278.92 346.94 282.99
  Q 343.53 286.92 340.24 291.33
  L 336.20 299.29
  Q 332.74 308.79 325.04 315.26
  Q 323.12 316.87 321.74 318.95
  Q 315.36 328.58 304.14 333.73
  L 295.33 338.26
  Q 274.65 346.93 250.12 346.52
  L 237.95 345.83
  Q 228.28 343.80 219.04 340.03
  C 213.47 337.76 205.72 338.89 202.18 333.07
  Q 199.65 328.92 197.46 326.78
  L 187.56 322.14
  Q 179.63 316.78 174.78 309.46
  Q 167.70 298.77 160.51 285.23
  Q 160.10 279.44 158.43 274.61
  Q 154.74 265.29 154.24 255.60
  C 154.03 251.44 155.94 247.26 156.40 242.91
  A 1.32 1.31 29.3 0 0 156.14 241.99
  C 153.32 238.33 156.34 232.87 156.60 228.46
  L 158.95 219.45
  Q 161.82 210.60 165.89 202.21
  C 169.73 194.28 176.62 189.16 180.81 181.28
  Q 183.44 176.72 189.02 174.71
  Q 192.29 173.30 193.03 172.50
  Q 201.15 163.72 211.08 158.32
  C 216.81 155.20 223.60 154.64 229.88 153.15
  L 237.79 151.50
  C 254.54 148.61 268.99 148.05 284.89 154.78
  Z
  M 233.81 168.69
  C 226.25 167.51 213.58 175.28 206.50 179.92
  C 203.69 181.76 202.08 184.33 200.07 186.96
  Q 199.76 187.37 199.26 187.53
  C 197.34 188.15 195.87 188.28 194.37 189.74
  C 188.28 195.64 184.30 203.02 179.58 210.83
  C 177.62 214.07 176.72 217.44 175.54 221.00
  C 174.56 223.99 175.37 226.93 172.35 229.66
  A 1.11 1.09 -22.0 0 0 171.98 230.50
  C 171.99 232.80 173.05 234.68 172.90 236.78
  C 172.62 240.71 171.09 244.29 170.90 247.87
  C 170.57 254.18 170.34 261.13 172.82 267.06
  Q 173.72 269.22 174.37 271.61
  C 179.39 289.91 187.41 305.56 205.12 313.95
  C 207.13 314.90 208.37 317.40 210.31 318.88
  Q 228.69 332.81 251.90 330.45
  Q 253.81 330.26 256.06 330.83
  C 261.42 332.22 268.13 329.27 273.43 328.16
  C 275.38 327.75 276.80 326.42 278.68 325.89
  C 285.01 324.11 294.03 321.93 299.09 317.63
  C 303.48 313.91 308.61 309.94 312.16 306.44
  C 327.87 290.98 335.73 273.27 336.14 250.86
  Q 336.15 250.40 335.88 250.03
  C 334.34 247.84 333.97 246.83 334.77 244.04
  Q 337.23 235.42 334.00 226.87
  A 1.26 1.22 3.5 0 0 333.38 226.19
  Q 330.37 224.75 329.99 222.25
  Q 328.58 212.86 324.72 206.26
  C 322.90 203.13 323.21 200.11 319.03 198.36
  Q 318.57 198.17 318.29 197.77
  C 315.27 193.49 312.47 189.69 308.28 186.35
  C 300.35 180.02 289.19 170.12 280.38 171.12
  A 1.28 1.27 -29.1 0 1 279.45 170.86
  C 273.42 166.13 270.18 169.05 263.69 167.82
  Q 253.53 165.91 243.20 166.70
  C 239.70 166.97 237.87 169.32 233.81 168.69
  Z"
/>
<path fill="#fdd31d" d="
  M 440.56 153.39
  Q 462.86 156.77 482.40 168.00
  A 1.04 1.04 0.0 0 1 482.85 169.29
  C 475.34 187.90 465.32 204.45 447.78 215.66
  Q 437.80 221.66 429.19 224.94
  C 404.50 234.35 377.00 237.93 350.14 237.44
  C 350.84 232.82 351.14 227.91 348.51 223.76
  C 345.00 218.24 344.12 215.21 342.94 208.52
  C 341.84 202.28 339.48 198.35 335.59 193.78
  C 363.31 166.55 401.28 148.60 440.56 153.39
  Z"
/>
<path fill="#7c3018" d="
  M 233.81 168.69
  C 237.87 169.32 239.70 166.97 243.20 166.70
  Q 253.53 165.91 263.69 167.82
  C 270.18 169.05 273.42 166.13 279.45 170.86
  A 1.28 1.27 -29.1 0 0 280.38 171.12
  C 289.19 170.12 300.35 180.02 308.28 186.35
  C 312.47 189.69 315.27 193.49 318.29 197.77
  Q 318.57 198.17 319.03 198.36
  C 323.21 200.11 322.90 203.13 324.72 206.26
  Q 328.58 212.86 329.99 222.25
  Q 330.37 224.75 333.38 226.19
  A 1.26 1.22 3.5 0 1 334.00 226.87
  Q 337.23 235.42 334.77 244.04
  C 333.97 246.83 334.34 247.84 335.88 250.03
  Q 336.15 250.40 336.14 250.86
  C 335.73 273.27 327.87 290.98 312.16 306.44
  C 308.61 309.94 303.48 313.91 299.09 317.63
  C 294.03 321.93 285.01 324.11 278.68 325.89
  C 276.80 326.42 275.38 327.75 273.43 328.16
  C 268.13 329.27 261.42 332.22 256.06 330.83
  Q 253.81 330.26 251.90 330.45
  Q 228.69 332.81 210.31 318.88
  C 208.37 317.40 207.13 314.90 205.12 313.95
  C 187.41 305.56 179.39 289.91 174.37 271.61
  Q 173.72 269.22 172.82 267.06
  C 170.34 261.13 170.57 254.18 170.90 247.87
  C 171.09 244.29 172.62 240.71 172.90 236.78
  C 173.05 234.68 171.99 232.80 171.98 230.50
  A 1.11 1.09 -22.0 0 1 172.35 229.66
  C 175.37 226.93 174.56 223.99 175.54 221.00
  C 176.72 217.44 177.62 214.07 179.58 210.83
  C 184.30 203.02 188.28 195.64 194.37 189.74
  C 195.87 188.28 197.34 188.15 199.26 187.53
  Q 199.76 187.37 200.07 186.96
  C 202.08 184.33 203.69 181.76 206.50 179.92
  C 213.58 175.28 226.25 167.51 233.81 168.69
  Z
  M 198.16 277.40
  C 199.63 281.93 204.00 281.33 204.74 287.04
  Q 204.81 287.54 205.20 287.86
  C 210.92 292.42 216.48 298.82 222.83 303.07
  C 224.58 304.25 226.08 304.17 228.01 303.69
  A 1.29 1.26 -37.5 0 1 228.92 303.80
  Q 231.13 304.99 233.20 306.41
  Q 233.70 306.76 234.30 306.82
  Q 241.20 307.50 247.32 310.65
  Q 247.79 310.89 248.27 310.67
  L 250.94 309.44
  A 1.84 1.84 0.0 0 1 251.82 309.28
  C 264.50 310.31 277.60 304.31 288.27 298.49
  C 294.44 295.13 298.75 292.65 301.99 286.62
  Q 304.30 282.31 307.45 278.54
  C 311.33 273.89 307.78 268.58 313.20 265.22
  A 1.25 1.24 -9.1 0 0 313.76 264.45
  Q 314.22 262.51 314.04 261.75
  C 312.61 255.75 313.71 251.51 314.58 246.08
  C 315.09 242.91 315.22 238.12 314.03 235.72
  Q 309.84 227.23 306.71 218.31
  C 306.07 216.50 304.62 215.53 303.27 214.32
  C 300.61 211.93 299.04 208.44 296.62 205.69
  C 293.75 202.42 291.19 196.53 286.74 195.76
  C 278.87 194.41 272.20 190.03 264.72 187.55
  C 258.53 185.49 254.23 187.59 248.44 188.03
  Q 234.73 189.08 224.83 193.59
  C 215.92 197.65 209.99 204.51 203.97 212.47
  C 197.92 220.47 196.06 230.71 193.73 240.22
  C 190.42 253.80 194.13 265.01 198.16 277.40
  Z"
/>
<path fill="#fdb800" d="
  M 53.71 166.95
  C 64.17 183.45 78.18 193.37 95.90 201.25
  Q 126.18 214.71 158.95 219.45
  L 156.60 228.46
  Q 130.09 216.41 101.24 213.07
  C 81.65 210.80 63.35 213.16 46.22 223.45
  C 34.00 208.33 25.47 191.50 15.79 175.04
  A 1.10 1.10 0.0 0 1 16.24 173.50
  C 29.38 166.70 39.56 166.38 53.71 166.95
  Z"
/>
<path fill="#592912" d="
  M 204.74 287.04
  C 204.00 281.33 199.63 281.93 198.16 277.40
  C 194.13 265.01 190.42 253.80 193.73 240.22
  C 196.06 230.71 197.92 220.47 203.97 212.47
  C 209.99 204.51 215.92 197.65 224.83 193.59
  Q 234.73 189.08 248.44 188.03
  C 254.23 187.59 258.53 185.49 264.72 187.55
  C 272.20 190.03 278.87 194.41 286.74 195.76
  C 291.19 196.53 293.75 202.42 296.62 205.69
  C 299.04 208.44 300.61 211.93 303.27 214.32
  C 304.62 215.53 306.07 216.50 306.71 218.31
  Q 309.84 227.23 314.03 235.72
  C 315.22 238.12 315.09 242.91 314.58 246.08
  C 313.71 251.51 312.61 255.75 314.04 261.75
  Q 314.22 262.51 313.76 264.45
  A 1.25 1.24 -9.1 0 1 313.20 265.22
  C 307.78 268.58 311.33 273.89 307.45 278.54
  Q 304.30 282.31 301.99 286.62
  C 298.75 292.65 294.44 295.13 288.27 298.49
  C 277.60 304.31 264.50 310.31 251.82 309.28
  A 1.84 1.84 0.0 0 0 250.94 309.44
  L 248.27 310.67
  Q 247.79 310.89 247.32 310.65
  Q 241.20 307.50 234.30 306.82
  Q 233.70 306.76 233.20 306.41
  Q 231.13 304.99 228.92 303.80
  A 1.29 1.26 -37.5 0 0 228.01 303.69
  C 226.08 304.17 224.58 304.25 222.83 303.07
  C 216.48 298.82 210.92 292.42 205.20 287.86
  Q 204.81 287.54 204.74 287.04
  Z"
/>
<path fill="#fdd31d" d="
  M 156.60 228.46
  C 156.34 232.87 153.32 238.33 156.14 241.99
  A 1.32 1.31 29.3 0 1 156.40 242.91
  C 155.94 247.26 154.03 251.44 154.24 255.60
  Q 154.74 265.29 158.43 274.61
  Q 127.05 288.58 92.99 291.72
  Q 73.79 293.49 55.18 289.66
  Q 35.77 283.98 20.96 270.30
  Q 14.08 263.95 10.50 260.39
  Q 10.08 259.98 10.45 259.51
  C 21.07 246.30 31.71 233.12 46.22 223.45
  C 63.35 213.16 81.65 210.80 101.24 213.07
  Q 130.09 216.41 156.60 228.46
  Z"
/>
<path fill="#fdb800" d="
  M 447.78 215.66
  Q 460.77 221.55 472.97 233.54
  Q 480.10 240.54 487.29 247.17
  Q 487.76 247.60 487.31 248.06
  C 479.02 256.49 471.73 263.50 460.50 268.24
  C 445.31 256.27 427.98 248.03 408.76 245.18
  C 388.11 242.13 372.37 243.37 351.21 246.70
  L 350.14 237.44
  C 377.00 237.93 404.50 234.35 429.19 224.94
  Q 437.80 221.66 447.78 215.66
  Z"
/>
<path fill="#fdd31d" d="
  M 460.50 268.24
  Q 478.49 284.13 489.51 305.08
  Q 489.73 305.49 489.35 305.77
  C 473.03 317.55 455.14 326.26 434.55 326.08
  C 401.35 325.24 367.20 310.19 340.24 291.33
  Q 343.53 286.92 346.94 282.99
  C 350.49 278.92 347.04 274.33 348.97 269.71
  C 351.11 264.56 354.34 258.60 351.52 254.35
  A 1.69 1.66 -62.3 0 1 351.24 253.42
  L 351.21 246.70
  C 372.37 243.37 388.11 242.13 408.76 245.18
  C 427.98 248.03 445.31 256.27 460.50 268.24
  Z"
/>
<path fill="#fdb800" d="
  M 158.43 274.61
  Q 160.10 279.44 160.51 285.23
  C 124.71 292.06 80.25 310.48 64.26 346.21
  Q 44.50 348.03 27.30 339.82
  Q 26.83 339.60 27.04 339.13
  C 34.81 321.72 42.29 304.30 55.18 289.66
  Q 73.79 293.49 92.99 291.72
  Q 127.05 288.58 158.43 274.61
  Z"
/>
<path fill="#fdd31d" d="
  M 160.51 285.23
  Q 167.70 298.77 174.78 309.46
  Q 179.63 316.78 187.56 322.14
  Q 168.15 351.31 139.81 373.06
  Q 124.19 385.06 107.64 390.79
  C 89.97 395.73 72.94 394.31 55.76 390.00
  A 0.91 0.91 0.0 0 1 55.07 389.01
  C 56.80 374.24 58.50 360.20 64.26 346.21
  C 80.25 310.48 124.71 292.06 160.51 285.23
  Z"
/>
<path fill="#fdb800" d="
  M 340.24 291.33
  C 367.20 310.19 401.35 325.24 434.55 326.08
  C 446.51 341.85 451.06 360.82 455.75 379.62
  A 0.76 0.76 0.0 0 1 455.20 380.55
  C 443.36 383.56 431.41 386.19 418.84 386.29
  C 417.21 380.49 415.54 374.31 413.42 369.00
  C 399.64 334.61 370.76 311.15 336.20 299.29
  L 340.24 291.33
  Z"
/>
<path fill="#fdd31d" d="
  M 336.20 299.29
  C 370.76 311.15 399.64 334.61 413.42 369.00
  C 415.54 374.31 417.21 380.49 418.84 386.29
  Q 422.60 404.07 421.65 423.33
  Q 421.59 424.68 420.24 424.72
  C 402.20 425.29 385.74 423.62 368.92 415.18
  Q 366.63 413.74 363.69 411.86
  C 337.47 395.14 316.05 361.73 304.14 333.73
  Q 315.36 328.58 321.74 318.95
  Q 323.12 316.87 325.04 315.26
  Q 332.74 308.79 336.20 299.29
  Z"
/>
<path fill="#fdb800" d="
  M 187.56 322.14
  L 197.46 326.78
  C 168.84 353.11 141.21 393.12 147.56 433.98
  Q 128.78 443.70 108.29 446.52
  A 0.35 0.34 -6.6 0 1 107.90 446.22
  Q 106.20 432.91 105.36 419.43
  Q 104.53 406.29 107.64 390.79
  Q 124.19 385.06 139.81 373.06
  Q 168.15 351.31 187.56 322.14
  Z"
/>
<path fill="#fdd31d" d="
  M 197.46 326.78
  Q 199.65 328.92 202.18 333.07
  C 205.72 338.89 213.47 337.76 219.04 340.03
  Q 228.28 343.80 237.95 345.83
  C 237.07 380.11 228.79 420.40 206.81 447.77
  C 194.96 460.96 180.07 468.69 163.59 474.33
  A 0.61 0.60 -24.5 0 1 162.86 474.06
  Q 152.32 455.29 147.56 433.98
  C 141.21 393.12 168.84 353.11 197.46 326.78
  Z"
/>
<path fill="#fdb800" d="
  M 304.14 333.73
  C 316.05 361.73 337.47 395.14 363.69 411.86
  Q 366.63 413.74 368.92 415.18
  Q 373.53 429.19 374.46 440.26
  Q 375.48 452.47 371.72 465.74
  Q 371.59 466.18 371.15 466.08
  Q 353.56 462.37 335.87 458.92
  C 330.46 457.86 325.09 455.77 319.68 454.16
  C 321.13 449.42 322.91 444.37 323.88 439.84
  Q 328.04 420.27 324.03 401.74
  Q 316.70 367.89 295.33 338.26
  L 304.14 333.73
  Z"
/>
<path fill="#fdd31d" d="
  M 295.33 338.26
  Q 316.70 367.89 324.03 401.74
  Q 328.04 420.27 323.88 439.84
  C 322.91 444.37 321.13 449.42 319.68 454.16
  Q 311.90 471.49 299.90 487.05
  A 0.73 0.73 0.0 0 1 298.95 487.23
  C 285.30 478.95 273.59 470.50 264.11 457.14
  C 244.39 426.17 244.24 380.91 250.12 346.52
  Q 274.65 346.93 295.33 338.26
  Z"
/>
<path fill="#fdb800" d="
  M 237.95 345.83
  L 250.12 346.52
  C 244.24 380.91 244.39 426.17 264.11 457.14
  Q 253.49 476.70 236.48 490.41
  Q 236.10 490.71 235.78 490.36
  Q 218.42 471.13 206.81 447.77
  C 228.79 420.40 237.07 380.11 237.95 345.83
  Z"
/>
</svg>
